<svg width="1068" height="478" viewBox="0 0 1068 478" fill="none" xmlns="http://www.w3.org/2000/svg">
<path d="M21.76 388V151.2H88.32L142.4 273.12L198.08 151.2H262.4V388H213.76V226.72L165.12 332.64H119.36L70.4 226.08V388H21.76ZM385.228 391.2C370.294 391.2 357.388 388.747 346.508 383.84C335.628 378.72 326.668 372 319.628 363.68C312.588 355.147 307.254 345.653 303.628 335.2C300.214 324.747 298.508 313.973 298.508 302.88C298.508 292.213 300.108 281.76 303.307 271.52C306.721 261.067 311.841 251.573 318.668 243.04C325.708 234.507 334.561 227.787 345.228 222.88C356.108 217.76 368.908 215.2 383.628 215.2C399.201 215.2 412.961 218.613 424.908 225.44C437.068 232.267 446.561 242.4 453.388 255.84C460.214 269.067 463.628 285.173 463.628 304.16V316H347.468C348.108 326.24 351.628 335.093 358.028 342.56C364.641 350.027 373.708 353.76 385.228 353.76C391.841 353.76 397.174 352.8 401.228 350.88C405.494 348.747 408.801 346.4 411.148 343.84C413.494 341.067 415.094 338.613 415.948 336.48C416.801 334.347 417.228 333.28 417.228 333.28H462.028C462.028 333.28 461.494 335.307 460.428 339.36C459.574 343.2 457.654 348 454.668 353.76C451.681 359.52 447.308 365.28 441.548 371.04C436.001 376.8 428.641 381.6 419.468 385.44C410.294 389.28 398.881 391.2 385.228 391.2ZM347.468 286.56H416.908C416.268 274.827 412.748 266.08 406.348 260.32C399.948 254.56 392.054 251.68 382.668 251.68C373.281 251.68 365.281 254.773 358.668 260.96C352.054 266.933 348.321 275.467 347.468 286.56ZM569.318 215.2C580.198 215.2 589.158 217.013 596.198 220.64C603.238 224.053 608.571 227.787 612.198 231.84C616.038 235.893 618.384 238.667 619.238 240.16H621.798V218.4H670.438V388H621.798V366.24H619.238C618.384 367.733 616.038 370.507 612.198 374.56C608.571 378.613 603.238 382.453 596.198 386.08C589.158 389.493 580.198 391.2 569.318 391.2C556.731 391.2 545.744 388.747 536.358 383.84C527.184 378.72 519.504 372 513.318 363.68C507.131 355.147 502.438 345.653 499.238 335.2C496.251 324.747 494.758 314.08 494.758 303.2C494.758 292.32 496.251 281.653 499.238 271.2C502.438 260.747 507.131 251.36 513.318 243.04C519.504 234.507 527.184 227.787 536.358 222.88C545.744 217.76 556.731 215.2 569.318 215.2ZM583.398 254.56C574.651 254.56 567.291 257.013 561.318 261.92C555.558 266.613 551.184 272.693 548.198 280.16C545.424 287.627 544.038 295.307 544.038 303.2C544.038 311.093 545.424 318.773 548.198 326.24C551.184 333.707 555.558 339.893 561.318 344.8C567.291 349.493 574.651 351.84 583.398 351.84C592.144 351.84 599.398 349.493 605.158 344.8C611.131 339.893 615.504 333.707 618.278 326.24C621.264 318.773 622.758 311.093 622.758 303.2C622.758 295.307 621.264 287.627 618.278 280.16C615.504 272.693 611.131 266.613 605.158 261.92C599.398 257.013 592.144 254.56 583.398 254.56ZM711.76 388V144.8H760.4V388H711.76ZM814.508 450.4C808.748 450.4 804.161 450.187 800.748 449.76C797.334 449.333 795.628 449.12 795.628 449.12V410.08C795.628 410.08 797.014 410.187 799.788 410.4C802.774 410.613 806.401 410.72 810.668 410.72C820.908 410.72 829.334 409.227 835.948 406.24C842.561 403.467 848.321 397.92 853.228 389.6L790.508 218.4H839.148L878.508 333.28L916.908 218.4H965.868L905.068 381.28C899.521 396.853 892.801 409.76 884.908 420C877.228 430.24 867.734 437.813 856.428 442.72C845.121 447.84 831.148 450.4 814.508 450.4Z" fill="#E5E2E1"/>
<ellipse cx="759.5" cy="51.5" rx="308.5" ry="51.5" fill="#FF6B2C"/>
</svg>
