<svg width="248" height="170" viewBox="0 0 248 170" fill="none" xmlns="http://www.w3.org/2000/svg">
<path d="M87.5 0.5C135.563 0.5 174.5 38.3455 174.5 85C174.5 131.654 135.563 169.5 87.5 169.5C39.4375 169.5 0.5 131.654 0.5 85C0.5 38.3455 39.4375 0.5 87.5 0.5Z" fill="white" stroke="black"/>
<path d="M50.2669 136V67.8016H69.4362L85.0112 102.915L101.047 67.8016H119.571V136H105.563V89.5514L91.5546 120.056H78.3757L64.2752 89.367V136H50.2669Z" fill="#FF6B2C"/>
<path d="M136.06 19.5C166.709 19.5 194.446 21.5745 214.509 24.9238C224.544 26.5991 232.637 28.5889 238.209 30.7881C240.997 31.8886 243.126 33.0311 244.548 34.1914C245.976 35.3566 246.62 36.4782 246.62 37.54C246.62 38.6018 245.976 39.7235 244.548 40.8887C243.126 42.049 240.997 43.1914 238.209 44.292C232.637 46.4911 224.544 48.4809 214.509 50.1562C194.446 53.5055 166.709 55.5801 136.06 55.5801C105.41 55.5801 77.6745 53.5055 57.6113 50.1562C47.5758 48.4809 39.4831 46.4911 33.9111 44.292C31.1227 43.1914 28.9945 42.049 27.5723 40.8887C26.1441 39.7235 25.5 38.6019 25.5 37.54C25.5 36.4782 26.1441 35.3566 27.5723 34.1914C28.9945 33.0311 31.1227 31.8886 33.9111 30.7881C39.4831 28.5889 47.5757 26.5991 57.6113 24.9238C77.6745 21.5746 105.41 19.5 136.06 19.5Z" fill="#FF6B2C" stroke="white"/>
</svg>
